<?xml version="1.0" encoding="UTF-8"?>
<svg width="84px" height="100px" viewBox="0 -10 84 125" version="1.1" xmlns="http://www.w3.org/2000/svg" xmlns:xlink="http://www.w3.org/1999/xlink">
    <!-- Generator: Sketch 47.1 (45422) - http://www.bohemiancoding.com/sketch -->
    <title>Tux_Mono</title>
    <desc>Created with Sketch.</desc>
    <defs></defs>
    <g id="Page-1" stroke="none" stroke-width="1" fill="none" fill-rule="evenodd">
        <g id="Tux_Mono" fill-rule="nonzero">
            <path d="M80.9462374,78.8917456 C80.2243834,78.089702 79.8817102,76.6091855 79.5131972,75.0319109 C79.1456324,73.4558021 78.7344483,71.7561225 77.4187538,70.6544784 C77.1496883,70.4235412 76.8818082,70.2348045 76.6127427,70.0773101 C76.3426105,69.9199324 76.0686853,69.7916987 75.7949971,69.6902775 C77.623931,64.3557552 76.9068182,59.043499 75.0601047,54.2439444 C72.7949766,48.3521884 68.8395959,43.2194593 65.8182398,39.7081872 C62.4365493,35.5126134 59.1294149,31.5303739 59.1947255,25.6479439 C59.2953583,16.6704186 60.1985648,0.0221858783 44.1352388,3.64194966e-05 C43.4821328,-0.00112934149 42.8005793,0.0256831612 42.0905784,0.0816396887 C24.1402383,1.50270233 28.9016301,20.1548781 28.6349352,26.3998598 C28.3066043,30.9673113 27.3654678,34.5671812 24.1710564,39.0320458 C20.4195491,43.4199702 15.1354355,50.5229519 12.6332453,57.9173738 C11.4526762,61.4064965 10.8908391,64.9631167 11.4088197,68.3298344 C11.2464322,68.473223 11.0923419,68.6237228 10.9441781,68.7776032 C9.84302476,69.9352039 9.02871654,71.336332 8.12195411,72.2794326 C7.2744572,73.1119026 6.06781126,73.4278238 4.74026365,73.8951774 C3.41271605,74.3639299 1.95596961,75.0539438 1.07172808,76.7233135 C0.649757595,77.4962131 0.514632214,78.3204061 0.514632214,79.1562567 C0.514632214,79.9291563 0.630792629,80.7126642 0.748138355,81.466795 C0.992312289,83.0359093 1.24004215,84.5198065 0.911711185,85.524809 C-0.138473795,88.3494479 -0.273599176,90.3020975 0.466034489,91.7197795 C1.20803878,93.1396764 2.73116259,93.76569 4.45341854,94.1200813 C7.89793045,94.8265325 12.5621267,94.6516684 16.2377742,96.5681794 L16.554252,95.9818016 L16.2413301,96.5693452 C20.1765605,98.5931063 24.1663152,99.3113316 27.3488735,98.5966035 C29.6578581,98.0791222 31.5306484,96.7268395 32.4931204,94.6470053 C34.9822722,94.6353477 37.7144126,93.5978204 42.0905784,93.3612875 C45.0597809,93.1256872 48.768617,94.3986982 53.034549,94.165546 C53.1459682,94.6201928 53.3072889,95.0585189 53.5276381,95.4746956 C55.1882579,98.7388264 58.2605824,100.226337 61.5357134,99.9722015 C64.8141634,99.717949 68.3001611,97.8167094 71.1189477,94.5187716 L70.6021524,94.0921031 L71.1226222,94.5141086 C73.8085355,91.3105974 78.2664877,89.9827956 81.2238371,88.2294911 C82.7019191,87.3528388 83.9002679,86.2548085 83.9939074,84.6599309 C84.0861245,83.0663357 83.1343203,81.2803898 80.9462374,78.8917456 Z" id="path3" fill-opacity="0.2" fill="#FFFFFF" opacity="0.701992754"></path>
            <path d="M83.1122776,83.6290112 C83.0539032,84.5882483 82.3108456,85.301055 80.9378308,86.0739916 C78.1941118,87.6210014 73.3307937,88.9668204 70.2261263,92.4825453 C67.5286205,95.4822213 64.2401953,97.1292582 61.3447029,97.3429525 C58.4492105,97.5566467 55.9511505,96.4336153 54.4771966,93.670367 L54.4746427,93.6646836 L54.4711159,93.6577499 C53.5564619,92.0323097 53.9371117,89.4691156 54.7069242,86.7639511 C55.4767368,84.0598097 56.5834183,81.2817847 56.7317866,79.0254918 L56.7317866,79.0185581 C56.8873301,76.1269796 57.0613588,73.6011819 57.5805263,71.6517903 C58.1010314,69.7023988 58.9194893,68.3838599 60.3692421,67.6416134 C60.4373456,67.6075133 60.5041113,67.5745498 60.5709987,67.5438596 C60.7352983,70.0479469 62.0621001,72.603298 64.406684,73.1556067 C66.9728474,73.7877097 70.6711096,71.7302207 72.2326251,70.0513569 C72.5450498,70.0398765 72.8490832,70.0252135 73.1447253,70.0183934 C74.5153078,69.9875896 75.6633379,70.0615869 76.8381229,71.0209377 L76.8416497,71.024234 L76.8452981,71.026621 C77.7476692,71.7415874 78.1769644,73.0919531 78.5491012,74.6037261 C78.9213597,76.1167495 79.2179747,77.7636728 80.3345069,78.9378544 L80.3357231,78.9389911 L80.3369392,78.9413781 C82.4823204,81.1658442 83.1718682,82.6685238 83.1122776,83.6290112 Z" id="path5" fill="#FFFFFF"></path>
            <path d="M30.931279,90.8733014 L30.93011,90.880223 L30.93011,90.8882982 C30.691622,93.9730344 28.9286818,95.6526813 26.2211423,96.2629376 C23.5159409,96.8731939 19.8462662,96.2653602 16.1824368,94.3744884 C16.1812677,94.3744884 16.1800987,94.3733348 16.1789296,94.3733348 C12.1246347,92.254165 7.30226828,92.4652744 4.20777039,91.8273316 C2.66110597,91.508937 1.65103941,91.0290379 1.18809224,90.1384559 C0.725145063,89.2467203 0.714623536,87.6928162 1.69897081,85.0429886 L1.70364704,85.0313372 L1.70715422,85.0198012 C2.19465162,83.5374205 1.83341254,81.9154538 1.59726272,80.392697 C1.3611129,78.8712091 1.2453761,77.4857312 1.77262149,76.5212032 L1.77729773,76.5119743 C2.45184449,75.2291671 3.440868,74.7700328 4.66837944,74.3362779 C5.89705994,73.9013693 7.3525378,73.560018 8.50172232,72.4224494 L8.50873667,72.4166814 L8.51458197,72.4109134 C9.57725616,71.3046075 10.3757231,69.9168223 11.3098009,68.9327984 C12.0977463,68.1022038 12.8868608,67.5519349 14.0757933,67.5438596 C14.089822,67.5451286 14.1026817,67.5451286 14.1167104,67.5438596 C14.3248028,67.5451286 14.5457549,67.5623173 14.7795666,67.5981944 C16.3577956,67.8335295 17.7337774,68.922416 19.0594898,70.6966584 L22.8869874,77.5802113 L22.8881564,77.5836721 L22.8904946,77.5859793 C23.9087445,79.6843843 26.0598122,81.9927452 27.8823744,84.3472503 C29.7049367,86.700717 31.1148212,89.0644509 30.931279,90.8733014 Z" id="path7" fill="#FFFFFF"></path>
            <path d="M51.0399915,26.9500644 C50.7279863,26.3675056 50.0909262,25.8132264 49.0066192,25.3890331 L49.0042465,25.3879019 L49.0006875,25.3867707 C46.7454711,24.4659885 45.7667475,24.40038 44.5080497,23.6198643 C42.459255,22.3642522 40.7663598,21.9242224 39.3593705,21.9298783 C38.6226586,21.9321407 37.9642445,22.0565707 37.3746377,22.251134 C35.6603885,22.8133315 34.5226965,23.9863673 33.8097112,24.6300099 L33.8085249,24.6311411 C33.8085249,24.6322723 33.8073386,24.6322723 33.8073386,24.6334035 C33.6673514,24.7600959 33.487029,24.8754764 33.050459,25.1808956 C32.61033,25.4874459 31.9507296,25.9489682 31.0016643,26.6276775 C30.1581825,27.2305975 29.8841399,28.0156379 30.1759775,28.9352889 C30.4666288,29.8549399 31.3967127,30.9159887 33.0979123,31.8333774 L33.1002849,31.8356398 L33.1038439,31.8367709 C34.1596791,32.4283792 34.8809687,33.2258625 35.7090281,33.8604557 C36.1230579,34.1771867 36.5584416,34.4599822 37.0828001,34.6737756 C37.6071587,34.887569 38.2193058,35.0323603 38.9856761,35.0753452 C40.7841548,35.1748893 42.1081008,34.6602014 43.2766375,34.0222147 C44.4475468,33.3853592 45.4392014,32.6059748 46.577012,32.2541771 L46.5793847,32.253046 L46.581876,32.2519148 C48.9140853,31.557369 50.5774408,30.1580967 51.0981218,28.8289578 C51.3591147,28.1638227 51.3508104,27.5326231 51.0399915,26.9500644 Z" id="path9" fill="#FFFFFF"></path>
            <path d="M46.401966,30.4164506 C44.4554662,31.3382343 42.1818481,32.4561404 39.7625296,32.4561404 C37.3444556,32.4561404 35.4341398,31.4408181 34.0602058,30.4515007 C33.3732388,29.9574074 32.8157004,29.4655753 32.3950576,29.1082904 C31.6652373,28.5849098 31.7526588,27.8508194 32.0525125,27.8724917 C32.5551222,27.9294967 32.6311166,28.530719 32.947618,28.7996234 C33.3757279,29.1636922 33.9121097,29.6351726 34.5617415,30.103261 C35.8610052,31.0383072 37.5933567,31.9484792 39.7625296,31.9484792 C41.927969,31.9484792 44.4557761,30.7935026 45.9987462,30.0071559 C46.872913,29.5616533 47.9852556,28.7630921 48.8930402,28.1577068 C49.5875638,27.69454 49.5622381,27.1368206 50.13569,27.1975421 C50.7091407,27.2582635 50.2849274,27.814858 49.4818555,28.4516041 C48.6787824,29.0883503 47.4224256,29.9332024 46.401966,30.4164506 L46.401966,30.4164506 Z" id="path11" fill="#9EAFBF"></path>
            <path d="M74.9687248,68.93789 C74.7104027,68.9285453 74.455652,68.9298302 74.2080438,68.9355538 C74.1854257,68.9367219 74.1628077,68.9367219 74.1389992,68.9367219 C74.7782569,66.9556437 73.3640331,65.4943649 69.5951506,63.8216621 C65.6869885,62.1350591 62.5728391,62.3019789 62.0466717,65.7244784 C62.0133398,65.9031959 61.9859601,66.0865858 61.9657229,66.2711438 C61.6728786,66.3715995 61.3800342,66.497753 61.0848091,66.655445 C59.2503656,67.6413117 58.2480286,69.4284872 57.6909101,71.6222743 C57.1349821,73.8136085 56.9742748,76.4616652 56.8219006,79.439123 C56.8219006,79.4402911 56.8219006,79.4402911 56.8219006,79.4414592 C56.7278571,80.9378974 56.0993132,82.9632462 55.4636267,85.1079736 C49.0615262,89.5898126 40.1762011,91.5311758 32.6312935,86.4780246 C32.1206016,85.6848925 31.5337225,84.8987689 30.9301775,84.1231581 C30.5444801,83.6280054 30.1480689,83.1361233 29.755229,82.6503152 C30.5290046,82.6514833 31.1873091,82.5263811 31.7194287,82.290544 C32.3813044,81.9950176 32.8455698,81.5231098 33.0765121,80.9155869 C33.5360157,79.7019429 33.0741312,77.9895251 31.6015767,76.0329767 C30.1290221,74.0775965 27.6350837,71.8710772 23.9709585,69.665726 C23.9709585,69.665726 23.9709585,69.665726 23.9709585,69.6645579 C21.2782193,68.0210573 19.7735233,66.0071558 19.0687923,63.8206109 C18.3628708,61.632781 18.461676,59.2674016 19.0056998,56.9323926 C20.0485113,52.4504368 22.7269654,48.0911303 24.4364143,45.3554669 C24.895918,45.0237297 24.6006928,45.9722177 22.7055378,49.4250874 C21.0079931,52.5813795 17.8331321,59.865463 22.1793703,65.5518349 C22.2960319,61.5054593 23.2805126,57.3786024 24.9340116,53.5180698 C27.3422394,48.1623837 32.3789236,38.8725754 32.7789061,31.4692301 C32.9860398,31.6164093 33.6943421,32.0859809 34.0098045,32.2623622 C34.0109949,32.2635303 34.0109949,32.2635303 34.0121854,32.2635303 C34.9359544,32.7973468 35.6299717,33.5776299 36.5287418,34.2866597 C37.4298928,34.9968575 38.5548435,35.610104 40.2547691,35.7070554 C40.4178572,35.7164001 40.577374,35.7210725 40.7333195,35.7210725 C42.4856237,35.7210725 43.8522306,35.1603899 44.9902759,34.5214455 C46.2272456,33.8276009 47.2151785,33.0589986 48.1521613,32.759968 C48.1533517,32.7587999 48.1545421,32.7587999 48.1557325,32.7587999 C50.1354077,32.1513938 51.7079579,31.0767523 52.6030377,29.8245614 C54.1410656,35.7724684 57.7170994,44.3637597 60.0159273,48.5560296 C61.2384928,50.7800702 63.6692197,55.5061565 64.7192927,61.2005882 C65.3847398,61.1806139 66.118041,61.2753459 66.9025304,61.472636 C69.6488387,54.4862984 64.574061,46.9626399 62.2527341,44.8670891 C61.3158704,43.9746694 61.2706343,43.5751831 61.7360901,43.5938725 C64.2526465,45.7793662 67.5583351,50.1725473 68.7607824,55.1322513 C69.3094488,57.393554 69.4262294,59.7718991 68.8380409,62.118589 C69.1249331,62.2353979 69.4177774,62.3627195 69.714193,62.5006708 C74.1223333,64.6066176 75.7520238,66.4381805 74.9687248,68.93789 Z" id="path13" fill="#FFFFFF"></path>
            <path d="M53.0523036,19.7087697 C53.0622634,20.9240359 52.8456376,21.9586381 52.3688119,23.0149201 C52.0974073,23.6171332 51.7850429,24.1229923 51.4103052,24.5614035 C51.2831932,24.5023866 51.1513502,24.4457786 51.0142784,24.3915794 C50.5399427,24.1952579 50.1203859,24.0338648 49.7445277,23.8965602 C49.3684206,23.7592556 49.074991,23.6654368 48.7723375,23.5642649 C48.9915777,23.3077221 49.4234597,23.0054111 49.5841861,22.6260168 C49.8282013,22.0539143 49.947719,21.4950605 49.9701285,20.8290127 C49.9701285,20.8025153 49.9788434,20.7796312 49.9788434,20.7483161 C49.9925381,20.1099701 49.9053898,19.564365 49.7124186,19.0055112 C49.5107325,18.4189555 49.254143,17.9974063 48.8832648,17.6469182 C48.5110171,17.2964302 48.1400143,17.1374459 47.694313,17.1229928 C47.6731484,17.1217884 47.6532288,17.1217884 47.6320642,17.1217884 C47.2137524,17.1229928 46.8502195,17.2627062 46.4741124,17.5662217 C46.0794551,17.8853947 45.7868858,18.2936952 45.5429951,18.8621844 C45.3002248,19.4306737 45.1807072,19.9943452 45.1569281,20.6640063 C45.1533177,20.6905037 45.1533177,20.7133878 45.1533177,20.7398851 C45.1446029,21.1084396 45.1695024,21.445679 45.2280162,21.773283 C44.371473,21.3601647 43.2756342,21.0589317 42.518689,20.8842898 C42.4751148,20.5675257 42.4502153,20.2411262 42.4427455,19.8990691 L42.4427455,19.8063282 C42.4290507,18.5946753 42.6344717,17.5552554 43.1162773,16.5001779 C43.5980829,15.443896 44.1944262,14.6851074 45.0334153,14.0672366 C45.8737739,13.4505703 46.6993173,13.1675301 47.6764987,13.1578947 L47.7225628,13.1578947 C48.6787041,13.1578947 49.4966531,13.4300951 50.3370117,14.0190596 C51.18982,14.6188639 51.804838,15.3680171 52.3003383,16.415868 C52.7858788,17.4372216 53.0199342,18.435691 53.0437133,19.6196422 C53.0435888,19.6509572 53.0435888,19.6774546 53.0523036,19.7087697 L53.0523036,19.7087697 Z" id="path15" fill="#FFFFFF"></path>
            <path d="M36.2282683,20.7978719 C36.1268366,20.832831 36.0284177,20.8702012 35.9310031,20.9099822 C35.3786523,21.1390248 34.9400998,21.3917987 34.5162961,21.7281296 C34.5574714,21.3761273 34.563497,21.0193031 34.5313602,20.6202867 C34.5283474,20.598588 34.5283474,20.5805057 34.5283474,20.5588069 C34.4841593,20.0295979 34.3907618,19.5859786 34.2350993,19.1375373 C34.0693941,18.6710137 33.8836034,18.3419156 33.6395647,18.0887633 C33.4186244,17.8597206 33.2097354,17.7536378 32.9787523,17.7560487 C32.955654,17.7560487 32.9315514,17.7572542 32.9074489,17.7596652 C32.6483461,17.7861859 32.4334314,17.9380773 32.2295638,18.2358327 C32.0267004,18.5323826 31.8931319,18.9012617 31.7967216,19.3906896 C31.7003113,19.878912 31.6752044,20.358696 31.7153754,20.9096037 C31.7153754,20.9313025 31.7193925,20.9493848 31.7193925,20.9710836 C31.7635805,21.5051145 31.852961,21.9487338 32.0116363,22.3971751 C32.1743287,22.8588768 32.3631322,23.1879749 32.6071709,23.4411272 C32.6483461,23.4833193 32.6885171,23.5218949 32.728688,23.5556485 C32.475611,23.7907186 32.3055733,23.9574543 32.0966842,24.1406884 C31.9631158,24.2576207 31.8044404,24.3974572 31.619654,24.5614035 C31.21694,24.1081403 30.9026022,23.5391502 30.6274311,22.7881316 C30.3020463,21.9008929 30.1283068,21.0124487 30.0760846,19.9636746 L30.0760846,19.9552362 C30.0278794,18.9064622 30.1132427,18.0047577 30.3532642,17.0717104 C30.59429,16.1386632 30.9156578,15.4635903 31.3826453,14.9090661 C31.8486285,14.3533364 32.3186288,14.0736633 32.8850395,14.0387042 C32.9292275,14.0362932 32.9724113,14.0350877 33.0155951,14.0350877 C33.5287792,14.0362932 33.9867283,14.2412261 34.4607457,14.6956948 C34.9749341,15.1887391 35.3635882,15.819209 35.688973,16.7076532 C36.0153621,17.5960974 36.1891016,18.4845416 36.2373067,19.5333157 L36.2373067,19.5417541 C36.260405,19.981757 36.2573922,20.3964446 36.2282683,20.7978719 L36.2282683,20.7978719 Z" id="path17" fill="#FFFFFF"></path>
            <path d="M40.6802776,23.9733743 C40.7885722,24.1923797 41.3487915,24.1560802 41.6724632,24.26112 C41.9564796,24.3532878 42.1849155,24.5552989 42.5042594,24.5611078 C42.8090377,24.5666561 43.2833683,24.494609 43.3230169,24.3041386 C43.3753963,24.0524983 42.7921533,23.8925859 42.4168422,23.800397 C41.9338844,23.6817607 41.3151181,23.6215697 40.8620717,23.7802785 C40.758254,23.8166454 40.6449451,23.9019284 40.6802776,23.9733775 L40.6802776,23.9733743 Z" id="path28396-7" fill="#9EAFBF"></path>
            <path d="M39.7828803,23.9733743 C39.6745857,24.1923797 39.1143664,24.1560802 38.7906947,24.26112 C38.5066783,24.3532878 38.2782424,24.5552989 37.9588985,24.5611078 C37.6541202,24.5666561 37.1797896,24.494609 37.140141,24.3041386 C37.0877616,24.0524983 37.6710046,23.8925859 38.0463157,23.800397 C38.5292735,23.6817607 39.1480398,23.6215697 39.6010862,23.7802785 C39.7049039,23.8166454 39.8182128,23.9019284 39.7828803,23.9733775 L39.7828803,23.9733743 Z" id="path5461" fill="#9EAFBF"></path>
        </g>
    </g>
</svg>